<?xml version="1.0" standalone="no"?>
<!DOCTYPE svg PUBLIC "-//W3C//DTD SVG 20010904//EN"
 "http://www.w3.org/TR/2001/REC-SVG-20010904/DTD/svg10.dtd">
<svg version="1.0" xmlns="http://www.w3.org/2000/svg"
 width="840.000000pt" height="760.000000pt" viewBox="0 0 840.000000 760.000000"
 preserveAspectRatio="xMidYMid meet">

<g transform="translate(0.000000,760.000000) scale(0.100000,-0.100000)"
fill="#000000" stroke="none">
<path d="M6237 7168 c-3 -13 -10 -61 -16 -108 -7 -47 -28 -202 -47 -345 -43
-320 -68 -515 -99 -755 -22 -173 -23 -186 -7 -198 13 -10 218 -12 1039 -10
562 2 1025 6 1029 11 10 10 -36 414 -111 962 -14 99 -32 234 -41 300 -8 65
-20 127 -24 136 -5 9 -24 19 -41 23 -17 3 -402 6 -854 6 l-823 0 -5 -22z"/>
<path d="M2460 5644 c-19 -3 -95 -11 -169 -20 -441 -49 -886 -176 -1181 -336
-200 -109 -367 -252 -470 -403 l-55 -80 0 -430 0 -430 180 -7 c99 -4 199 -12
223 -18 83 -20 164 -87 230 -189 l37 -56 3 -340 c2 -187 6 -410 10 -495 l7
-155 1545 -7 c850 -5 1583 -7 1630 -5 l85 2 5 475 c5 412 8 481 22 518 35 88
130 197 203 232 46 22 199 40 344 40 53 0 101 4 107 8 9 5 13 123 15 412 l3
405 -38 65 c-130 223 -364 410 -681 545 -269 114 -702 218 -1045 251 -139 14
-933 27 -1010 18z"/>
<path d="M6968 5504 c-5 -4 -8 -1086 -8 -2404 l0 -2396 -38 -37 -38 -37 -396
0 c-386 0 -396 -1 -422 -21 -35 -28 -57 -72 -58 -118 0 -43 13 -74 50 -114
l26 -27 925 0 c509 1 971 5 1025 9 96 8 101 9 127 41 40 48 45 92 17 148 -35
71 -44 73 -458 78 -378 6 -415 10 -457 57 -20 22 -20 32 -27 2416 -3 1317 -8
2397 -12 2400 -9 9 -248 14 -256 5z"/>
<path d="M395 3691 c-76 -7 -117 -28 -156 -82 l-21 -30 -2 -1337 c-1 -1458 -3
-1401 54 -1444 18 -13 56 -22 125 -29 148 -16 5047 -25 5085 -9 15 6 45 29 66
51 l39 40 0 1327 c0 1427 0 1425 -50 1469 -41 36 -91 45 -285 50 -275 8 -418
-17 -450 -77 -30 -57 -33 -130 -39 -1075 l-6 -960 -1849 -3 c-1473 -2 -1851 0
-1858 10 -4 7 -8 458 -8 1001 l0 989 -52 53 -53 53 -235 5 c-129 3 -267 2
-305 -2z"/>
<path d="M1603 2451 c-177 -4 -325 -10 -330 -14 -7 -8 -8 -645 -1 -652 2 -2
738 -6 1636 -10 l1632 -8 -2 344 -3 344 -1305 1 c-718 0 -1450 -2 -1627 -5z"/>
<path d="M883 653 c-12 -2 -40 -24 -62 -48 -37 -41 -41 -49 -41 -98 0 -41 6
-61 24 -86 48 -64 54 -66 243 -66 187 0 198 3 246 67 27 37 27 129 0 166 -47
63 -61 67 -231 68 -86 1 -167 0 -179 -3z"/>
<path d="M4573 645 c-40 -17 -83 -89 -83 -140 0 -53 43 -123 86 -141 40 -17
299 -20 357 -3 80 22 119 147 71 229 -34 61 -68 70 -244 70 -109 -1 -164 -5
-187 -15z"/>
</g>
</svg>
