<?xml version="1.0" standalone="no"?>
<!DOCTYPE svg PUBLIC "-//W3C//DTD SVG 20010904//EN"
 "http://www.w3.org/TR/2001/REC-SVG-20010904/DTD/svg10.dtd">
<svg version="1.0" xmlns="http://www.w3.org/2000/svg"
 width="225.000000pt" height="225.000000pt" viewBox="0 0 225.000000 225.000000"
 preserveAspectRatio="xMidYMid meet">

<g transform="translate(0.000000,225.000000) scale(0.100000,-0.100000)"
fill="#000000" stroke="none">
<path d="M144 1991 l-111 -249 25 -7 c14 -3 70 -5 126 -4 l101 2 3 -282 c2
-242 0 -281 -12 -281 -10 0 -59 -87 -131 -230 l-115 -229 127 -3 128 -3 3
-347 2 -348 835 0 835 0 2 348 3 347 128 3 c70 1 127 5 127 8 0 4 -50 105
-112 227 -72 142 -118 222 -130 225 -17 4 -18 23 -18 283 l0 279 78 1 c42 1
100 4 127 7 l51 7 -110 248 -110 247 -870 0 -871 0 -111 -249z m1006 160 l795
-1 68 -152 c37 -84 67 -159 67 -165 0 -10 -198 -13 -955 -13 -525 0 -955 3
-955 6 0 10 132 307 142 321 5 6 17 10 26 8 9 -2 375 -4 812 -4z m730 -702 l0
-279 -750 0 -750 0 0 280 0 280 743 2 c408 2 745 2 750 0 4 -2 7 -129 7 -283z
m127 -501 c37 -73 69 -139 71 -145 3 -10 -191 -13 -946 -13 -522 0 -951 2
-954 5 -3 3 27 68 66 145 l71 140 812 0 813 0 67 -132z m-129 -550 l2 -308
-300 0 -300 0 0 245 0 246 -152 -3 -153 -3 -3 -242 -2 -243 -295 0 -295 0 0
310 0 310 748 -2 747 -3 3 -307z m-688 -108 l0 -200 -65 0 -65 0 0 200 0 200
65 0 65 0 0 -200z"/>
<path d="M520 1485 l0 -155 155 0 155 0 0 155 0 155 -155 0 -155 0 0 -155z
m220 -5 l0 -70 -65 0 -65 0 0 70 0 70 65 0 65 0 0 -70z"/>
<path d="M970 1485 l0 -155 155 0 155 0 0 155 0 155 -155 0 -155 0 0 -155z
m220 -5 l0 -70 -65 0 -65 0 0 70 0 70 65 0 65 0 0 -70z"/>
<path d="M1427 1633 c-4 -3 -7 -73 -7 -155 l0 -148 155 0 155 0 0 155 0 155
-148 0 c-82 0 -152 -3 -155 -7z m217 -99 c8 -20 8 -88 0 -108 -5 -12 -21 -16
-70 -16 l-64 0 0 70 0 70 64 0 c49 0 65 -4 70 -16z"/>
<path d="M520 395 l0 -155 155 0 155 0 0 155 0 155 -155 0 -155 0 0 -155z
m220 -5 l0 -71 -62 3 -63 3 -3 68 -3 67 66 0 65 0 0 -70z"/>
<path d="M1427 543 c-4 -3 -7 -73 -7 -155 l0 -148 155 0 155 0 0 155 0 155
-148 0 c-82 0 -152 -3 -155 -7z m218 -153 l0 -65 -65 0 -65 0 -3 68 -3 68 68
-3 68 -3 0 -65z"/>
</g>
</svg>
