<?xml version="1.0" standalone="no"?>
<!DOCTYPE svg PUBLIC "-//W3C//DTD SVG 20010904//EN"
 "http://www.w3.org/TR/2001/REC-SVG-20010904/DTD/svg10.dtd">
<svg version="1.0" xmlns="http://www.w3.org/2000/svg"
 width="880.000000pt" height="680.000000pt" viewBox="0 0 880.000000 680.000000"
 preserveAspectRatio="xMidYMid meet">

<g transform="translate(0.000000,680.000000) scale(0.100000,-0.100000)"
fill="#000000" stroke="none">
<path d="M4305 6351 c-72 -34 -2533 -1139 -2753 -1236 -41 -18 -86 -41 -100
-52 l-27 -20 -3 -617 -2 -616 90 0 c87 0 90 1 90 23 1 12 0 256 0 543 0 314 3
531 9 546 5 14 22 30 38 36 15 5 145 62 288 127 143 64 341 153 440 197 99 44
272 122 385 173 113 51 374 168 580 260 206 92 525 235 709 317 268 121 340
149 365 145 17 -3 128 -49 246 -102 118 -53 233 -105 255 -115 22 -10 166 -74
320 -143 154 -69 336 -151 405 -182 69 -31 139 -62 155 -70 17 -7 102 -46 190
-85 88 -40 309 -139 490 -220 625 -279 700 -313 708 -320 4 -3 9 -257 10 -562
1 -306 4 -559 7 -561 3 -3 43 -7 90 -8 l85 -2 3 611 2 611 -22 24 c-15 16
-215 111 -543 257 -594 266 -741 332 -1685 755 -434 195 -700 309 -725 311
-29 3 -57 -4 -100 -25z"/>
<path d="M5068 5379 c-149 -20 -318 -106 -417 -215 -238 -260 -246 -645 -19
-916 51 -62 146 -133 232 -174 198 -95 455 -84 645 29 81 47 201 170 246 250
69 126 107 292 90 402 l-7 47 -41 -5 c-23 -3 -66 -9 -94 -12 l-53 -7 0 -82 c0
-142 -45 -253 -144 -352 -100 -100 -207 -144 -352 -144 -277 0 -494 217 -494
495 0 183 103 352 265 437 92 47 163 62 261 55 44 -4 93 -9 109 -13 l31 -6 26
86 c18 62 22 88 14 95 -33 26 -200 43 -298 30z"/>
<path d="M5695 5263 c-49 -48 -190 -186 -313 -307 l-222 -220 -65 64 -65 65
-73 -73 -72 -73 112 -109 c110 -109 112 -110 159 -110 47 0 48 1 161 113 63
61 223 224 356 360 l241 248 -65 64 -64 64 -90 -86z"/>
<path d="M6337 4070 c-21 -17 -45 -80 -132 -340 -143 -429 -147 -412 119 -420
l171 -5 3 -152 3 -153 -58 -2 c-62 -2 -110 -5 -130 -7 -9 -1 -13 -25 -13 -85
0 -67 3 -85 16 -90 9 -3 138 -6 288 -6 l273 0 6 76 c3 42 3 82 1 89 -7 17 -51
25 -130 25 -60 0 -64 1 -70 26 -8 32 0 257 10 273 5 7 57 11 162 11 156 0 185
5 211 39 7 9 13 29 13 46 0 16 -45 167 -101 335 -84 254 -106 310 -130 333
l-29 27 -229 0 c-214 0 -230 -1 -254 -20z m444 -357 c34 -104 64 -194 67 -200
3 -10 -53 -13 -258 -13 -205 0 -261 3 -258 13 3 6 33 96 67 200 l63 187 128 0
128 0 63 -187z"/>
<path d="M1982 3760 c-69 -35 -104 -72 -138 -145 l-24 -50 0 -487 0 -486 -62
-21 c-114 -38 -237 -141 -284 -237 -55 -112 -54 -91 -54 -1007 l0 -849 29 -29
29 -29 227 0 c238 0 272 6 290 47 5 10 11 92 14 183 l6 165 1490 0 1490 0 5
-165 c5 -176 12 -204 56 -220 14 -6 122 -10 240 -10 240 0 263 5 283 61 8 22
11 276 11 848 0 890 -1 900 -57 1003 -60 111 -165 200 -282 239 l-61 21 0 479
c0 462 -1 480 -21 535 -24 63 -76 121 -141 156 l-43 23 -1471 3 -1470 2 -62
-30z m2980 -189 l33 -29 0 -469 0 -468 -97 -3 -96 -3 -4 238 c-3 217 -5 242
-24 284 -31 66 -78 114 -142 146 l-57 28 -345 3 c-230 2 -362 0 -397 -8 -66
-14 -136 -61 -173 -115 -50 -73 -60 -134 -60 -367 l0 -209 -97 3 -98 3 -5 245
c-6 282 -8 290 -101 374 -84 75 -99 77 -516 74 -350 -3 -359 -4 -400 -26 -64
-34 -111 -80 -141 -136 -27 -51 -27 -52 -30 -293 l-3 -243 -100 0 -99 0 0 463
c1 494 1 495 51 523 20 11 285 13 1446 14 l1423 0 32 -29z m-1790 -500 l33
-29 0 -219 0 -218 -397 -3 -398 -2 0 221 0 221 29 29 29 29 336 0 336 0 32
-29z m1379 19 c43 -24 49 -57 49 -280 l0 -210 -400 0 -400 0 0 213 c1 226 5
247 51 273 30 17 669 20 700 4z m671 -707 c66 -30 132 -102 157 -169 19 -50
21 -76 21 -334 l0 -280 -1895 0 -1895 0 0 288 c0 280 1 288 24 337 42 90 100
143 189 171 34 10 355 12 1697 11 l1655 -2 47 -22z m178 -1373 l0 -400 -99 0
-100 0 -3 171 -3 171 -33 29 -32 29 -1621 0 c-1762 0 -1661 3 -1687 -55 -8
-17 -12 -83 -12 -185 l0 -160 -100 0 -100 0 0 400 0 400 1895 0 1895 0 0 -400z"/>
<path d="M5858 2589 c-60 -22 -58 -5 -56 -821 l3 -743 93 -3 92 -3 0 295 0
294 34 4 c34 4 1158 -1 1162 -5 2 -1 4 -126 5 -277 1 -151 4 -283 7 -292 4
-16 17 -18 93 -18 l89 0 2 493 c1 270 1 611 0 756 -2 286 -5 301 -58 321 -34
13 -1430 12 -1466 -1z m1332 -484 l0 -295 -600 0 -600 0 0 295 0 295 600 0
600 0 0 -295z"/>
<path d="M6390 2105 l0 -95 200 0 200 0 0 95 0 95 -200 0 -200 0 0 -95z"/>
</g>
</svg>
