<?xml version="1.0" standalone="no"?>
<!DOCTYPE svg PUBLIC "-//W3C//DTD SVG 20010904//EN"
 "http://www.w3.org/TR/2001/REC-SVG-20010904/DTD/svg10.dtd">
<svg version="1.0" xmlns="http://www.w3.org/2000/svg"
 width="320.000000pt" height="320.000000pt" viewBox="0 0 320.000000 320.000000"
 preserveAspectRatio="xMidYMid meet">

<g transform="translate(0.000000,320.000000) scale(0.100000,-0.100000)"
fill="#000000" stroke="none">
<path d="M1460 2563 c-36 -1 -132 -8 -215 -14 -82 -6 -168 -12 -190 -14 -22
-1 -60 -5 -85 -9 -25 -4 -58 -10 -75 -12 -91 -14 -241 -48 -273 -61 -114 -47
-155 -126 -202 -386 -20 -116 -21 -115 77 -96 38 7 129 13 204 13 l136 1 51
-95 c42 -79 81 -187 108 -295 8 -31 -39 -52 -136 -59 -47 -4 -123 -12 -169
-18 l-85 -11 -34 37 c-18 21 -53 46 -76 56 -35 14 -46 26 -60 62 -10 23 -20
68 -23 98 -7 79 -32 160 -48 160 -18 0 -28 -17 -15 -25 29 -18 -5 -23 -155
-21 -143 1 -166 -1 -182 -16 -16 -16 -16 -47 -6 -485 7 -258 15 -476 18 -485
9 -23 59 -37 165 -46 l85 -7 3 -59 c3 -49 0 -62 -17 -78 -26 -23 -26 -34 -2
-48 35 -18 177 -6 173 15 -2 6 19 12 45 15 53 6 67 27 40 58 -9 9 -17 40 -18
67 l-3 50 1102 3 1102 2 0 -59 c0 -51 -3 -59 -21 -64 -15 -4 -20 -12 -17 -29
3 -20 9 -23 51 -26 31 -2 47 -8 47 -16 0 -20 23 -26 91 -26 70 0 99 12 99 42
0 16 -5 19 -25 16 -23 -5 -25 -2 -25 31 0 20 3 52 6 72 l6 36 104 7 c116 7
152 19 159 50 11 55 15 193 16 559 2 298 -1 401 -10 410 -9 8 -61 12 -177 11
-90 -1 -164 1 -164 5 0 4 5 12 12 19 16 16 1 29 -20 16 -19 -13 -30 -51 -42
-149 -13 -105 -32 -143 -87 -167 -25 -11 -59 -36 -76 -55 -29 -33 -34 -35 -76
-29 -26 4 -98 11 -161 17 -134 11 -194 32 -187 63 22 89 63 202 93 261 20 39
43 84 51 100 l15 30 136 -1 c76 0 168 -6 205 -13 37 -6 72 -9 77 -6 5 3 5 17
0 33 -5 15 -16 68 -24 117 -22 131 -24 140 -50 198 -53 119 -122 153 -411 201
-111 19 -643 58 -730 54 -22 -1 -69 -3 -105 -5z m600 -38 c190 -18 382 -50
468 -77 35 -10 62 -21 60 -23 -2 -2 -44 5 -93 15 -289 59 -558 85 -885 84
-338 0 -582 -24 -904 -90 -137 -28 -139 -28 -106 -9 76 44 347 89 685 115 161
12 583 4 775 -15z m-1712 -1778 c3 -66 3 -67 -23 -67 -24 0 -25 2 -25 63 0 68
5 79 30 75 11 -3 16 -19 18 -71z m2512 3 c0 -63 -2 -70 -20 -70 -18 0 -20 7
-20 63 0 66 4 77 27 77 10 0 13 -18 13 -70z m-2473 -37 c-2 -16 -4 -3 -4 27 0
30 2 43 4 28 2 -16 2 -40 0 -55z"/>
</g>
</svg>
