<?xml version="1.0" standalone="no"?>
<!DOCTYPE svg PUBLIC "-//W3C//DTD SVG 20010904//EN"
 "http://www.w3.org/TR/2001/REC-SVG-20010904/DTD/svg10.dtd">
<svg version="1.0" xmlns="http://www.w3.org/2000/svg"
 width="860.000000pt" height="801.000000pt" viewBox="0 0 860.000000 801.000000"
 preserveAspectRatio="xMidYMid meet">

<g transform="translate(0.000000,801.000000) scale(0.100000,-0.100000)"
fill="#000000" stroke="none">
<path d="M6577 7600 c-70 -12 -184 -48 -239 -76 -60 -30 -104 -30 -176 0 -199
84 -375 85 -563 5 -143 -61 -189 -108 -189 -195 0 -98 18 -120 411 -513 200
-200 381 -374 401 -387 152 -97 265 -25 349 221 21 61 24 88 24 210 -1 132 -2
145 -33 233 -18 51 -30 96 -27 101 8 13 97 31 153 31 144 -1 289 -86 355 -209
58 -106 57 -76 57 -1417 0 -677 2 -1239 6 -1248 8 -20 -4 -18 183 -21 139 -2
156 0 173 17 18 18 19 55 15 1291 -3 1166 -4 1278 -20 1344 -51 212 -168 383
-337 492 -160 103 -369 150 -543 121z"/>
<path d="M5097 7006 c-68 -28 -134 -72 -148 -97 -14 -27 -10 -72 9 -95 40 -50
94 -56 165 -20 26 13 67 31 91 40 61 24 89 56 89 106 0 89 -84 116 -206 66z"/>
<path d="M4665 6764 c-36 -18 -129 -86 -167 -122 -50 -46 -33 -123 33 -158 41
-21 68 -10 176 67 100 73 122 108 99 162 -25 61 -82 82 -141 51z"/>
<path d="M5419 6641 c-67 -45 -152 -120 -168 -149 -31 -57 23 -132 95 -132 52
0 212 127 234 186 19 49 -40 124 -97 124 -11 0 -39 -13 -64 -29z"/>
<path d="M4235 6411 c-68 -41 -175 -175 -175 -218 0 -53 75 -112 124 -97 27 9
164 141 182 176 32 62 10 125 -52 148 -35 14 -45 13 -79 -9z"/>
<path d="M5821 6321 c-40 -43 -95 -131 -113 -179 -16 -42 -2 -80 42 -110 67
-45 119 -11 206 138 52 89 55 120 15 161 -23 23 -38 29 -72 29 -36 0 -47 -5
-78 -39z"/>
<path d="M4981 6233 c-128 -131 -152 -196 -91 -246 64 -55 103 -45 182 46 86
98 98 118 98 158 0 53 -33 89 -88 96 -42 6 -45 4 -101 -54z"/>
<path d="M3899 5989 c-46 -17 -159 -198 -159 -255 0 -39 59 -94 101 -94 43 0
101 60 152 157 40 77 46 116 21 152 -13 18 -74 54 -86 50 -2 0 -15 -5 -29 -10z"/>
<path d="M5557 5860 c-40 -35 -107 -163 -114 -220 -7 -49 14 -84 62 -107 32
-15 38 -15 68 -1 38 18 89 98 123 193 22 61 23 68 9 101 -10 23 -26 39 -49 49
-49 21 -61 19 -99 -15z"/>
<path d="M4684 5836 c-25 -18 -121 -164 -136 -207 -22 -63 25 -129 93 -129 32
0 43 7 81 49 24 26 60 80 80 119 32 62 35 76 27 104 -5 18 -17 41 -27 51 -26
25 -91 33 -118 13z"/>
<path d="M5329 5361 c-29 -23 -94 -172 -105 -240 -6 -37 -3 -44 30 -77 33 -33
40 -36 79 -31 25 3 48 14 58 26 30 37 81 174 86 231 5 49 2 57 -20 78 -36 34
-95 40 -128 13z"/>
<path d="M4408 5343 c-21 -24 -61 -105 -88 -180 -29 -81 -18 -116 46 -144 64
-29 94 -14 137 69 75 145 81 200 30 248 -32 30 -102 34 -125 7z"/>
<path d="M5147 4830 c-26 -21 -51 -84 -61 -158 -7 -47 11 -95 43 -112 25 -13
77 -13 101 0 46 24 88 147 75 216 -12 65 -104 96 -158 54z"/>
<path d="M525 4040 c-116 -29 -191 -123 -217 -270 -18 -104 19 -240 85 -308
33 -35 84 -65 128 -75 14 -4 1720 -7 3790 -8 3734 -2 3765 -2 3809 18 25 11
64 40 86 65 133 144 113 436 -36 534 -86 57 156 54 -3885 53 -2051 -1 -3743
-5 -3760 -9z"/>
<path d="M695 3034 c-8 -9 -14 -24 -11 -33 3 -9 12 -53 21 -98 44 -222 110
-412 221 -638 232 -473 568 -821 1010 -1046 142 -72 288 -129 434 -169 63 -18
117 -34 119 -36 2 -2 -9 -32 -24 -66 -71 -158 -25 -343 99 -399 36 -16 68 -19
246 -19 113 0 221 5 241 10 60 17 102 52 131 108 39 77 45 147 20 246 -11 44
-18 84 -15 89 2 4 506 7 1120 7 l1115 0 -5 -22 c-3 -13 -12 -48 -21 -78 -33
-117 -12 -223 57 -287 69 -63 92 -68 348 -68 l225 0 41 27 c29 19 50 45 69 85
25 51 29 70 29 149 0 80 -3 98 -29 152 -16 34 -27 64 -24 67 3 3 63 21 134 41
158 43 277 89 412 160 450 236 784 574 1005 1018 108 217 196 479 242 719 11
58 11 70 -2 82 -13 13 -467 15 -3603 15 -3281 0 -3590 -1 -3605 -16z"/>
</g>
</svg>
