<svg width="30" height="22" viewBox="0 0 30 22" fill="none" xmlns="http://www.w3.org/2000/svg">
<path d="M27.5 10.5838V3.44381C27.5 2.32181 26.582 1.40381 25.46 1.40381H5.06C3.938 1.40381 3.02 2.32181 3.02 3.44381V10.5838M7.1 10.5838V8.54381C7.1 7.42181 8.018 6.50381 9.14 6.50381H13.22C14.342 6.50381 15.26 7.42181 15.26 8.54381M15.26 8.54381V10.5838M15.26 8.54381C15.26 7.42181 16.178 6.50381 17.3 6.50381H21.38C22.502 6.50381 23.42 7.42181 23.42 8.54381V10.5838M2 12.6238V20.7838H5.06V18.7438H25.46V20.7838H28.52V12.6238C28.52 11.5018 27.602 10.5838 26.48 10.5838H4.04C2.918 10.5838 2 11.5018 2 12.6238Z" stroke="#AF8F7A" stroke-width="2.04" stroke-miterlimit="10"/>
</svg>
